<?xml version="1.0" standalone="no"?>
<!DOCTYPE svg PUBLIC "-//W3C//DTD SVG 20010904//EN"
 "http://www.w3.org/TR/2001/REC-SVG-20010904/DTD/svg10.dtd">
<svg version="1.0" xmlns="http://www.w3.org/2000/svg"
 width="200.000000pt" height="180.000000pt" viewBox="0 0 200.000000 180.000000"
 preserveAspectRatio="xMidYMid meet">
<metadata>
Created by potrace 1.10, written by Peter Selinger 2001-2011
</metadata>
<g transform="translate(0.000000,180.000000) scale(0.100000,-0.100000)"
fill="#000000" stroke="none">
<path d="M850 1759 c-181 -15 -355 -61 -483 -126 -174 -88 -323 -249 -352
-380 -24 -115 3 -263 70 -373 31 -50 132 -165 145 -165 3 0 19 -10 35 -23 17
-13 24 -20 16 -16 -9 5 -12 3 -7 -5 4 -6 11 -9 16 -6 12 7 41 -5 35 -15 -3 -5
0 -12 6 -16 8 -5 9 -3 4 6 -5 8 -3 11 6 8 8 -3 13 -11 11 -17 -1 -7 2 -10 7
-7 14 9 42 -5 34 -17 -3 -5 -1 -7 5 -3 15 9 93 -24 85 -37 -3 -6 -1 -7 5 -3
16 10 135 -26 120 -36 -8 -5 -4 -7 12 -3 14 3 70 -1 125 -10 130 -19 347 -19
488 1 64 9 160 32 225 53 61 21 112 36 112 34 0 -2 -14 -9 -31 -15 -16 -6 -28
-12 -25 -15 7 -7 77 28 72 36 -3 4 18 19 45 34 27 16 49 26 49 23 0 -2 -18
-15 -40 -27 -22 -12 -38 -24 -36 -27 8 -7 96 50 91 58 -3 5 0 12 6 16 8 4 9 3
5 -4 -12 -20 5 -13 45 19 22 17 37 35 34 39 -3 5 0 12 6 16 8 5 9 3 4 -7 -21
-35 42 32 80 86 180 255 146 520 -90 712 -44 35 -102 76 -130 90 -209 108
-485 150 -805 122z m486 -33 c164 -34 303 -94 422 -184 117 -88 194 -209 208
-325 7 -63 -10 -178 -32 -212 -8 -12 -17 -32 -19 -44 -7 -35 -73 -127 -128
-177 -60 -54 -136 -105 -210 -140 -64 -29 -96 -32 -42 -3 68 36 130 86 186
150 51 58 139 186 139 202 0 14 -10 7 -25 -20 -9 -16 -13 -19 -9 -8 46 126 54
156 54 211 0 100 -47 217 -124 309 l-26 30 6 -32 c20 -104 -186 -229 -426
-259 -100 -12 -96 -7 -104 -139 -7 -126 -29 -253 -52 -297 -8 -15 -12 -28 -9
-28 12 0 -26 -58 -42 -65 -10 -3 -63 -9 -118 -11 l-101 -5 -22 38 c-64 112
-79 183 -96 463 -1 23 -6 25 -89 37 -247 35 -427 137 -427 242 0 33 0 34 -20
16 -32 -29 -78 -107 -99 -167 -68 -199 -6 -383 181 -539 35 -29 63 -59 63 -67
0 -8 33 -32 75 -54 78 -40 65 -42 -31 -3 -120 48 -254 157 -321 260 -134 207
-93 436 109 605 149 125 340 199 593 230 107 13 450 4 536 -14z m488 -396 c28
-60 31 -73 31 -165 0 -94 -2 -104 -36 -175 -20 -41 -52 -95 -70 -120 -18 -25
-34 -49 -34 -55 0 -19 -131 -115 -210 -153 -168 -83 -397 -130 -572 -118 -176
12 -347 53 -468 113 -71 35 -109 62 -70 50 12 -4 5 5 -15 20 -81 62 -165 160
-202 233 -42 88 -53 153 -38 247 10 63 72 213 88 213 4 0 15 -19 26 -41 44
-96 238 -191 437 -214 l56 -7 11 -126 c13 -136 41 -261 74 -325 11 -22 41 -62
66 -90 26 -28 41 -47 35 -43 -7 4 -13 4 -13 -1 0 -4 44 -8 97 -9 54 0 91 1 83
4 -8 2 -20 5 -27 7 -6 2 4 20 24 42 79 83 133 266 133 450 l0 91 28 6 c15 3
45 8 67 12 150 23 310 98 385 181 28 30 50 60 50 66 1 20 30 -24 64 -93z m-32
-432 c-16 -24 -40 -52 -53 -63 l-24 -20 21 25 c12 14 34 44 49 68 15 23 30 40
32 38 3 -3 -8 -24 -25 -48z m-728 -236 c3 -5 -2 -18 -10 -30 -26 -38 -124 -27
-124 14 0 20 123 34 134 16z"/>
<path d="M781 1709 c-79 -9 -234 -48 -291 -72 -56 -24 -120 -75 -131 -105 -15
-40 10 -85 65 -117 57 -33 188 -70 283 -80 l71 -7 11 59 c25 136 63 217 138
291 25 25 39 31 58 27 14 -3 35 -7 48 -10 12 -2 30 -17 40 -32 9 -15 31 -47
47 -70 20 -27 38 -72 52 -130 32 -136 28 -129 84 -123 l49 5 -47 3 c-41 3 -48
6 -48 24 0 31 -39 167 -60 209 -10 19 -33 49 -51 67 -20 19 -27 32 -18 32 8 0
68 -5 134 -10 126 -11 241 -37 304 -70 42 -21 91 -73 91 -96 0 -21 -54 -68
-101 -90 -22 -9 -39 -21 -39 -26 0 -11 87 34 123 64 38 32 46 84 17 120 -30
39 -150 95 -255 119 -71 16 -134 21 -295 24 -113 2 -238 0 -279 -6z m119 -42
c-52 -41 -94 -130 -116 -246 -8 -41 -16 -76 -18 -78 -6 -6 -149 18 -220 38
-81 22 -152 61 -161 89 -12 36 26 82 94 117 90 45 280 89 396 91 33 1 37 -1
25 -11z"/>
<path d="M937 1570 c-47 -37 -114 -217 -90 -241 12 -12 265 -15 283 -4 27 17
-25 169 -77 226 -41 45 -76 51 -116 19z m106 -50 c36 -31 73 -104 79 -155 l3
-30 -134 -3 -134 -3 6 39 c7 58 49 134 87 160 43 29 53 28 93 -8z"/>
<path d="M833 1095 c11 -234 116 -374 216 -289 17 14 31 30 31 36 0 6 -13 -4
-29 -21 -83 -89 -184 34 -206 252 l-7 67 151 0 151 0 -6 -57 c-6 -54 -32 -163
-48 -208 -6 -16 -6 -17 3 -5 24 32 52 149 58 237 l6 91 -163 -1 -162 -2 5
-100z"/>
<path d="M1058 794 c-22 -20 -48 -34 -63 -34 -14 0 -25 -5 -25 -11 0 -18 66
-3 89 20 12 12 21 25 21 30 0 5 6 11 13 14 6 2 10 7 7 10 -3 3 -22 -10 -42
-29z"/>
<path d="M1435 549 c-27 -10 -37 -17 -21 -14 31 7 97 33 81 33 -5 0 -32 -8
-60 -19z"/>
<path d="M685 505 c28 -8 66 -14 85 -13 32 1 32 1 -10 8 -25 4 -63 10 -85 13
-35 6 -34 5 10 -8z"/>
<path d="M1230 504 l-65 -14 61 5 c57 4 138 25 89 23 -11 -1 -49 -7 -85 -14z"/>
<path d="M903 483 c48 -2 126 -2 175 0 48 1 8 3 -88 3 -96 0 -136 -2 -87 -3z"/>
<path d="M420 412 c-50 -26 -95 -115 -85 -171 25 -151 220 -194 303 -68 94
142 -66 318 -218 239z m137 -66 c25 -21 28 -31 28 -81 0 -50 -3 -60 -28 -81
-36 -31 -78 -31 -114 0 -25 21 -28 31 -28 81 0 50 3 60 28 81 36 31 78 31 114
0z"/>
<path d="M685 403 c90 -136 105 -170 105 -232 l0 -61 40 0 40 0 0 62 c0 58 3
66 60 155 33 51 60 95 60 96 0 2 -19 1 -42 -2 -40 -6 -45 -10 -79 -69 l-37
-63 -37 65 c-37 62 -40 64 -81 68 -42 3 -43 3 -29 -19z"/>
<path d="M1081 408 c-68 -46 -95 -109 -79 -182 19 -86 83 -131 173 -124 65 5
111 37 136 92 25 54 24 93 -3 146 -32 61 -66 83 -135 88 -48 3 -64 0 -92 -20z
m139 -63 c15 -16 24 -41 28 -73 4 -41 0 -52 -23 -80 -63 -75 -170 -9 -150 94
14 78 96 111 145 59z"/>
<path d="M50 390 l0 -31 50 7 50 7 0 -132 0 -131 35 0 35 0 0 131 0 132 50 -7
50 -7 0 31 0 30 -135 0 -135 0 0 -30z"/>
<path d="M1350 389 l0 -31 50 7 50 7 0 -131 0 -131 30 0 30 0 0 131 0 132 50
-7 50 -7 0 31 0 30 -130 0 -130 0 0 -31z"/>
<path d="M1720 410 c0 -5 -25 -73 -55 -150 -30 -77 -55 -143 -55 -146 0 -3 17
-4 37 -2 33 3 39 7 47 36 l9 33 71 -3 c70 -3 70 -3 80 -35 8 -30 13 -33 47
-33 38 0 38 0 28 28 -6 15 -33 84 -60 155 l-51 127 -49 0 c-27 0 -49 -4 -49
-10z m77 -45 c2 -6 -9 -10 -24 -9 -40 3 -40 3 -23 14 18 12 42 9 47 -5z m-19
-133 c-22 -2 -42 -1 -44 1 -3 2 5 31 17 62 l22 59 22 -60 22 -59 -39 -3z"/>
</g>
</svg>
